<svg xmlns="http://www.w3.org/2000/svg" width="324.156" height="39.47" viewBox="0 0 324.156 39.47">
  <defs>
    <style>
      .cls-1 { fill: #ffffff; fill-rule: evenodd; }
    </style>
  </defs>
  <path id="Funeralbooker" class="cls-1" d="M70.205 33.25V22.49h7.992V18.6h-7.992v-6.59H80.68V8.12H65.13v25.13h5.075zm26.057-8.96a5 5 0 0 1-1.206 3.6 4.3 4.3 0 0 1-3.258 1.26 4.24 4.24 0 0 1-3.24-1.26 5.05 5.05 0 0 1-1.188-3.6V13.31h-5.04v11.7a8.64 8.64 0 0 0 2.16 6.24 7.347 7.347 0 0 0 5.544 2.25 6.652 6.652 0 0 0 6.228-3.27v3.02h5.076V13.31h-5.076v10.98zm9.964-10.98v19.94h5.076V22.23a4.935 4.935 0 0 1 1.206-3.58 4.323 4.323 0 0 1 3.258-1.24 4.263 4.263 0 0 1 3.24 1.24 4.98 4.98 0 0 1 1.188 3.58v11.02h5.04V21.51a8.64 8.64 0 0 0-2.16-6.24 7.39 7.39 0 0 0-5.58-2.25 6.62 6.62 0 0 0-6.192 3.27v-2.98h-5.076zm38.372 18.43a8.754 8.754 0 0 0 3.348-4.65h-5.472a4.193 4.193 0 0 1-3.888 2.16 4.487 4.487 0 0 1-3.2-1.18 4.767 4.767 0 0 1-1.44-3.14h14.544a12.234 12.234 0 0 0 .144-1.94 9.625 9.625 0 0 0-2.808-7.25 9.87 9.87 0 0 0-7.182-2.72 9.578 9.578 0 0 0-7.128 2.79 10.12 10.12 0 0 0-2.754 7.43 10.27 10.27 0 0 0 2.736 7.47 9.413 9.413 0 0 0 7.092 2.83 9.97 9.97 0 0 0 6.008-1.8zm-1.224-10.08h-9.432a5.032 5.032 0 0 1 1.53-3.17 4.51 4.51 0 0 1 3.186-1.19 4.773 4.773 0 0 1 3.258 1.19 4.347 4.347 0 0 1 1.458 3.17zm8.914-8.35v19.94h5.076V23.24q0-2.775 1.152-3.9a4.67 4.67 0 0 1 3.42-1.14h1.26v-5.18q-3.816 0-5.832 3.81v-3.52h-5.076zm23.12 15.84a5.05 5.05 0 0 1-3.69-1.59 5.82 5.82 0 0 1-1.585-4.32 5.745 5.745 0 0 1 1.566-4.28 5.166 5.166 0 0 1 7.4.02 6.628 6.628 0 0 1 0 8.6 5.107 5.107 0 0 1-3.693 1.57zm-1.027 4.39a7.057 7.057 0 0 0 6.3-3.64v3.35h5.04V13.31h-5.04v3.09a6.993 6.993 0 0 0-6.263-3.38 8.835 8.835 0 0 0-6.768 2.86 11.524 11.524 0 0 0 .017 14.76 8.775 8.775 0 0 0 6.714 2.9zm21.295-.29V6.61H190.6v26.64h5.075zm15.19-4.1a5.068 5.068 0 0 1-3.69-1.57 6.687 6.687 0 0 1 0-8.6 5.03 5.03 0 0 1 3.69-1.57 5.087 5.087 0 0 1 3.69 1.55 5.745 5.745 0 0 1 1.567 4.28 5.857 5.857 0 0 1-1.566 4.32 5.01 5.01 0 0 1-3.69 1.59zM205.61 6.61h-5.076v26.64h5.076V29.9a6.99 6.99 0 0 0 6.282 3.64 8.756 8.756 0 0 0 6.714-2.88 11.582 11.582 0 0 0 0-14.78 8.835 8.835 0 0 0-6.768-2.86 6.908 6.908 0 0 0-6.228 3.38V6.61zm24.743 21.1a7.386 7.386 0 0 1 0-8.86 4.814 4.814 0 0 1 3.618-1.55 4.93 4.93 0 0 1 3.655 1.55 7.183 7.183 0 0 1-.018 8.84 4.94 4.94 0 0 1-3.657 1.56 4.785 4.785 0 0 1-3.6-1.54zm3.6 5.83a10.22 10.22 0 0 0 7.362-2.85 10.8 10.8 0 0 0 .018-14.86 10.955 10.955 0 0 0-14.652 0 9.748 9.748 0 0 0-2.95 7.41 9.93 9.93 0 0 0 2.915 7.45 10.034 10.034 0 0 0 7.305 2.85zm19.36-5.83a7.386 7.386 0 0 1 0-8.86 4.814 4.814 0 0 1 3.618-1.55 4.93 4.93 0 0 1 3.655 1.55 7.183 7.183 0 0 1-.018 8.84 4.94 4.94 0 0 1-3.654 1.56 4.785 4.785 0 0 1-3.6-1.54zm3.6 5.83a10.22 10.22 0 0 0 7.362-2.85 10.8 10.8 0 0 0 .018-14.86 10.955 10.955 0 0 0-14.652 0 9.748 9.748 0 0 0-2.95 7.41 9.93 9.93 0 0 0 2.915 7.45 10.034 10.034 0 0 0 7.308 2.85zm19.037-8.61l6.84 8.32h6.768l-8.856-9.86 8.856-10.08h-6.876l-6.732 8.53V6.61h-5.076v26.64h5.076v-8.32zm29.624 6.81a8.754 8.754 0 0 0 3.348-4.65h-5.472a4.2 4.2 0 0 1-3.888 2.16 4.487 4.487 0 0 1-3.2-1.18 4.762 4.762 0 0 1-1.44-3.14h14.544a12.353 12.353 0 0 0 .144-1.94 9.625 9.625 0 0 0-2.808-7.25 9.87 9.87 0 0 0-7.182-2.72 9.578 9.578 0 0 0-7.128 2.79 10.12 10.12 0 0 0-2.754 7.43 10.27 10.27 0 0 0 2.736 7.47 9.41 9.41 0 0 0 7.092 2.83 9.97 9.97 0 0 0 6.008-1.8zm-1.224-10.08h-9.432a5.027 5.027 0 0 1 1.53-3.17 4.507 4.507 0 0 1 3.186-1.19 4.773 4.773 0 0 1 3.258 1.19 4.347 4.347 0 0 1 1.458 3.17zm8.913-8.35v19.94h5.076V23.24q0-2.775 1.15-3.9a4.67 4.67 0 0 1 3.42-1.14h1.26v-5.18q-3.815 0-5.83 3.81v-3.52h-5.077zM41.563.05a.92.92 0 0 0-.226-.04c-.864-.1-1.317.82-1.78 1.39a26.34 26.34 0 0 1-11.18 8.4c-2.723 1.05-5.76 1.84-7.966 3.85-1.2 1.1-1.658 2.82-2.4 4.24a27.5 27.5 0 0 1-4.34 6.29C11.283 22 9.497 20.3 7.002 19.45a3.737 3.737 0 0 0-3.468.36 3.365 3.365 0 0 0-1.45 2.49c-.408.21-1.74.88-1.96 1.04a.194.194 0 0 0-.122.19.236.236 0 0 0 .19.17l2.133.12c1.48.62 2.757 2.39 3.582 3.34a15.832 15.832 0 0 1 2.162 3.47c1.7 3.47 4.043 6.52 8.163 6.99a13.283 13.283 0 0 0 4.528-.34 14.425 14.425 0 0 1 4.15-.83 16.47 16.47 0 0 1 7.265 2.65c.63.38 1.517.72 1.9-.12a1.64 1.64 0 0 0-.28-1.58 1.96 1.96 0 0 0 .234-.07c.655-.24.475-.91.11-1.37a1.24 1.24 0 0 0 .268-.14.946.946 0 0 0 .095-1.33 1.255 1.255 0 0 0 .25-.63c.074-.72-.646-.87-1.22-.83a18.184 18.184 0 0 1-4.89-.09 9.942 9.942 0 0 1-2.315-.74 4 4 0 0 1-1.365-1.02c-.092-.12-.05-.28.1-.27a4.623 4.623 0 0 0 3.072-.45.81.81 0 0 0 .11-1.38.493.493 0 0 0-.133-.09 3.21 3.21 0 0 0 1.688-.66.882.882 0 0 0-.02-1.47 3.2 3.2 0 0 0 1.62-.82.962.962 0 0 0 .036-1.41 3.025 3.025 0 0 0 1.5-.96A1.084 1.084 0 0 0 33 22.31a3.036 3.036 0 0 0 1.4-1.09 1.21 1.21 0 0 0 .076-1.29 3.145 3.145 0 0 0 1.313-1.23 1.38 1.38 0 0 0 .073-1.23 3.257 3.257 0 0 0 1.24-1.37 1.56 1.56 0 0 0 .065-1.16 3.415 3.415 0 0 0 1.172-1.51 1.774 1.774 0 0 0 .052-1.09 3.616 3.616 0 0 0 1.107-1.65 2 2 0 0 0 .036-1.01 3.88 3.88 0 0 0 1.042-1.8 2.213 2.213 0 0 0 .022-.92 4.22 4.22 0 0 0 .975-1.95 2.463 2.463 0 0 0 .008-.83 4.518 4.518 0 0 0 .906-2.11 1.782 1.782 0 0 0-.926-2.02z"/>
</svg>
