<svg xmlns="http://www.w3.org/2000/svg" width="186.625" height="301.53" viewBox="0 0 186.625 301.53">
  <defs>
    <style>
      .cls-1 { fill: #fff; fill-rule: evenodd; }
    </style>
  </defs>
  <path id="F" class="cls-1" d="M60.9 125.71h95.9v1.95c-8.755 16.31-18.575 31.29-30.78 44.71h-5.014c-17.744-16.26-31.61-28.86-50.6-35.34-9.477-3.23-18.784-3.14-27.742 2.88a26.794 26.794 0 0 0-11.61 19.87c-3.254 1.74-13.91 7.1-15.66 8.36a1.538 1.538 0 0 0-.982 1.5 1.77 1.77 0 0 0 1.51 1.33l17.073.99c11.4 4.82 21.292 18.1 27.907 25.88v103.69H-.012V0h186.624v46.65H60.9v79.06z"/>
</svg>
