<svg xmlns="http://www.w3.org/2000/svg" viewBox="1804 1657 886 1779" xmlns:xlink="http://www.w3.org/1999/xlink">
  <defs>
    <path id="c" d="M0 3.002C0 1.344 1.333.19 2.97.424l1.06.152C5.67.81 7 2.336 7 4.008v63.984c0 1.66-1.333 3.198-2.97 3.432l-1.06.152C1.33 71.81 0 70.658 0 68.998V3.002z"/>
    <filter id="b" width="200%" height="200%" x="-50%" y="-50%" filterUnits="objectBoundingBox">
      <feOffset dx="1" in="SourceAlpha" result="shadowOffsetOuter1"/>
      <feGaussianBlur stdDeviation=".5" in="shadowOffsetOuter1" result="shadowBlurOuter1"/>
      <feColorMatrix values="0 0 0 0 0 0 0 0 0 0 0 0 0 0 0 0 0 0 0.1 0" in="shadowBlurOuter1"/>
    </filter>
    <filter id="d" width="200%" height="200%" x="-50%" y="-50%" filterUnits="objectBoundingBox">
      <feOffset dx="1" in="SourceAlpha" result="shadowOffsetInner1"/>
      <feComposite in="shadowOffsetInner1" in2="SourceAlpha" operator="arithmetic" k2="-1" k3="1" result="shadowInnerInner1"/>
      <feColorMatrix values="0 0 0 0 0.317647059 0 0 0 0 0.321568627 0 0 0 0 0.333333333 0 0 0 1 0" in="shadowInnerInner1"/>
    </filter>
    <linearGradient id="e" x1="50%" x2="50%" y1="0%" y2="98.255%">
      <stop stop-color="#898A8F" offset="0%"/>
      <stop stop-color="#16171C" offset="2.098%"/>
      <stop stop-color="#222328" offset="4.737%"/>
      <stop stop-color="#D2D3D8" offset="11.348%"/>
      <stop stop-color="#DDDEE3" offset="14.245%"/>
      <stop stop-color="#D2D3D8" offset="84.875%"/>
      <stop stop-color="#B9BABF" offset="89.364%"/>
      <stop stop-color="#212227" offset="97.994%"/>
      <stop stop-color="#A3A4A9" offset="100%"/>
    </linearGradient>
    <path id="g" d="M0 2.994C0 1.34 1.333.2 2.97.444L4.03.6C5.67.847 7 2.392 7 4.042v129.915c0 1.656-1.333 3.197-2.97 3.44l-1.06.16c-1.64.244-2.97-.9-2.97-2.55V2.993z"/>
    <filter id="f" width="200%" height="200%" x="-50%" y="-50%" filterUnits="objectBoundingBox">
      <feOffset dx="1" in="SourceAlpha" result="shadowOffsetOuter1"/>
      <feGaussianBlur stdDeviation=".5" in="shadowOffsetOuter1" result="shadowBlurOuter1"/>
      <feColorMatrix values="0 0 0 0 0 0 0 0 0 0 0 0 0 0 0 0 0 0 0.1 0" in="shadowBlurOuter1"/>
    </filter>
    <filter id="h" width="200%" height="200%" x="-50%" y="-50%" filterUnits="objectBoundingBox">
      <feOffset dx="1" in="SourceAlpha" result="shadowOffsetInner1"/>
      <feComposite in="shadowOffsetInner1" in2="SourceAlpha" operator="arithmetic" k2="-1" k3="1" result="shadowInnerInner1"/>
      <feColorMatrix values="0 0 0 0 0.317647059 0 0 0 0 0.321568627 0 0 0 0 0.333333333 0 0 0 1 0" in="shadowInnerInner1"/>
    </filter>
    <path id="i" d="M866 512.9V1627c0 49.577-14.154 149-151 149H154c-135.252 0-150-98.87-150-149V671.897c1.236-1.262 2-2.99 2-4.894V379.997c0-1.91-.763-3.638-2-4.9V149C4 61.467 49.008 0 154 0h564c68.797 0 148 29.79 148 149v226.102c-1.236 1.26-2 2.987-2 4.89v128.015c0 1.905.763 3.632 2 4.894z"/>
    <filter id="j" width="200%" height="200%" x="-50%" y="-50%" filterUnits="objectBoundingBox">
      <feMorphology radius="12" in="SourceAlpha" result="shadowSpreadInner1"/>
      <feGaussianBlur stdDeviation="5" in="shadowSpreadInner1" result="shadowBlurInner1"/>
      <feOffset in="shadowBlurInner1" result="shadowOffsetInner1"/>
      <feComposite in="shadowOffsetInner1" in2="SourceAlpha" operator="arithmetic" k2="-1" k3="1" result="shadowInnerInner1"/>
      <feColorMatrix values="0 0 0 0 0 0 0 0 0 0 0 0 0 0 0 0 0 0 0.6 0" in="shadowInnerInner1"/>
    </filter>
    <linearGradient id="m" x1="50%" x2="50%" y1="0%" y2="100%">
      <stop stop-color="#191B19" offset="0%"/>
      <stop stop-color="#141414" offset="100%"/>
    </linearGradient>
    <path id="l" d="M9.068 0c3.972.042 10.928.008 10.928.008C21.103.003 22.896 0 23.998 0h85.107C113.385 0 118 4 118 4H0S5.097-.042 9.068 0z"/>
    <filter id="k" width="200%" height="200%" x="-50%" y="-50%" filterUnits="objectBoundingBox">
      <feMorphology radius=".5" operator="dilate" in="SourceAlpha" result="shadowSpreadOuter1"/>
      <feOffset in="shadowSpreadOuter1" result="shadowOffsetOuter1"/>
      <feColorMatrix values="0 0 0 0 1 0 0 0 0 1 0 0 0 0 1 0 0 0 0.1 0" in="shadowOffsetOuter1"/>
    </filter>
    <path id="o" d="M0 3.005C0 1.345 1.333.19 2.97.425l1.06.15C5.67.81 7 2.34 7 4v128H3.01C1.346 132 0 130.65 0 128.995V3.005z"/>
    <filter id="n" width="200%" height="200%" x="-50%" y="-50%" filterUnits="objectBoundingBox">
      <feOffset dx="1" in="SourceAlpha" result="shadowOffsetOuter1"/>
      <feGaussianBlur stdDeviation=".5" in="shadowOffsetOuter1" result="shadowBlurOuter1"/>
      <feColorMatrix values="0 0 0 0 0 0 0 0 0 0 0 0 0 0 0 0 0 0 0.1 0" in="shadowBlurOuter1"/>
    </filter>
    <filter id="p" width="200%" height="200%" x="-50%" y="-50%" filterUnits="objectBoundingBox">
      <feOffset dx="1" in="SourceAlpha" result="shadowOffsetInner1"/>
      <feComposite in="shadowOffsetInner1" in2="SourceAlpha" operator="arithmetic" k2="-1" k3="1" result="shadowInnerInner1"/>
      <feColorMatrix values="0 0 0 0 0.317647059 0 0 0 0 0.321568627 0 0 0 0 0.333333333 0 0 0 1 0" in="shadowInnerInner1"/>
    </filter>
    <path id="r" d="M0 3.005C0 1.345 1.35 0 3.01 0H7v130.995C7 131.55 6.562 132 5.997 132H3.01C1.346 132 0 130.65 0 128.995V3.005z"/>
    <filter id="q" width="200%" height="200%" x="-50%" y="-50%" filterUnits="objectBoundingBox">
      <feOffset dx="1" in="SourceAlpha" result="shadowOffsetOuter1"/>
      <feGaussianBlur stdDeviation=".5" in="shadowOffsetOuter1" result="shadowBlurOuter1"/>
      <feColorMatrix values="0 0 0 0 0 0 0 0 0 0 0 0 0 0 0 0 0 0 0.1 0" in="shadowBlurOuter1"/>
    </filter>
    <filter id="s" width="200%" height="200%" x="-50%" y="-50%" filterUnits="objectBoundingBox">
      <feOffset dx="1" in="SourceAlpha" result="shadowOffsetInner1"/>
      <feComposite in="shadowOffsetInner1" in2="SourceAlpha" operator="arithmetic" k2="-1" k3="1" result="shadowInnerInner1"/>
      <feColorMatrix values="0 0 0 0 0.317647059 0 0 0 0 0.321568627 0 0 0 0 0.333333333 0 0 0 1 0" in="shadowInnerInner1"/>
    </filter>
    <linearGradient id="u" x1="50%" x2="50%" y1="0%" y2="100%">
      <stop stop-color="#020202" offset="0%"/>
      <stop offset="100%"/>
    </linearGradient>
    <path id="a" d="M1.002 1625c0-48.45-.005-994.74 0-1489 0-61.285 27.61-129 130-129h576c68.797 0 128 35.682 128 129v1490c0 35.316-10.44 129-130 129h-573c-112.843 0-131-81.55-131-130z"/>
    <filter id="t" width="200%" height="200%" x="-50%" y="-50%" filterUnits="objectBoundingBox">
      <feMorphology radius="5" operator="dilate" in="SourceAlpha" result="shadowSpreadOuter1"/>
      <feOffset dy="2" in="shadowSpreadOuter1" result="shadowOffsetOuter1"/>
      <feGaussianBlur stdDeviation="2" in="shadowOffsetOuter1" result="shadowBlurOuter1"/>
      <feComposite in="shadowBlurOuter1" in2="SourceAlpha" operator="out" result="shadowBlurOuter1"/>
      <feColorMatrix values="0 0 0 0 1 0 0 0 0 1 0 0 0 0 1 0 0 0 0.16 0" in="shadowBlurOuter1"/>
    </filter>
    <filter id="v" width="200%" height="200%" x="-50%" y="-50%" filterUnits="objectBoundingBox">
      <feGaussianBlur stdDeviation="1" in="SourceAlpha" result="shadowBlurInner1"/>
      <feOffset dy="1" in="shadowBlurInner1" result="shadowOffsetInner1"/>
      <feComposite in="shadowOffsetInner1" in2="SourceAlpha" operator="arithmetic" k2="-1" k3="1" result="shadowInnerInner1"/>
      <feColorMatrix values="0 0 0 0 0 0 0 0 0 0 0 0 0 0 0 0 0 0 0.14 0" in="shadowInnerInner1"/>
    </filter>
    <mask id="w" width="838.002" height="1752" x="-2" y="-2">
      <path fill="#fff" d="M-1 5h838.002v1752H-1z"/>
      <use xlink:href="#a"/>
    </mask>
    <path id="z" d="M424.5 8H122C57.928 8 6 59.934 6 123.997v1514.006C6 1702.073 57.935 1754 122 1754h302.5H127c-64.065 0-116-51.928-116-115.997V123.997C11 59.934 62.927 8 127 8h297.5z"/>
    <filter id="x" width="200%" height="200%" x="-50%" y="-50%" filterUnits="objectBoundingBox">
      <feGaussianBlur stdDeviation="2" in="SourceGraphic"/>
    </filter>
    <filter id="y" width="200%" height="200%" x="-50%" y="-50%" filterUnits="objectBoundingBox">
      <feMorphology radius="2.5" operator="dilate" in="SourceAlpha" result="shadowSpreadOuter1"/>
      <feOffset dy="2" in="shadowSpreadOuter1" result="shadowOffsetOuter1"/>
      <feGaussianBlur stdDeviation="1.5" in="shadowOffsetOuter1" result="shadowBlurOuter1"/>
      <feColorMatrix values="0 0 0 0 1 0 0 0 0 1 0 0 0 0 1 0 0 0 0.6 0" in="shadowBlurOuter1"/>
    </filter>
    <path id="C" d="M411.5 8h303c64.065 0 116 51.928 116 115.997v1514.006c0 64.063-51.927 115.997-116 115.997h-303 297c64.073 0 116-51.934 116-115.997V123.997C824.5 59.927 772.565 8 708.5 8h-297z"/>
    <filter id="A" width="200%" height="200%" x="-50%" y="-50%" filterUnits="objectBoundingBox">
      <feGaussianBlur stdDeviation="2" in="SourceGraphic"/>
    </filter>
    <filter id="B" width="200%" height="200%" x="-50%" y="-50%" filterUnits="objectBoundingBox">
      <feMorphology radius="3" operator="dilate" in="SourceAlpha" result="shadowSpreadOuter1"/>
      <feOffset dy="2" in="shadowSpreadOuter1" result="shadowOffsetOuter1"/>
      <feGaussianBlur stdDeviation="2" in="shadowOffsetOuter1" result="shadowBlurOuter1"/>
      <feColorMatrix values="0 0 0 0 1 0 0 0 0 1 0 0 0 0 1 0 0 0 0.5 0" in="shadowBlurOuter1"/>
    </filter>
    <filter id="D" width="200%" height="200%" x="-50%" y="-50%" filterUnits="objectBoundingBox">
      <feOffset dy="6" in="SourceAlpha" result="shadowOffsetInner1"/>
      <feComposite in="shadowOffsetInner1" in2="SourceAlpha" operator="arithmetic" k2="-1" k3="1" result="shadowInnerInner1"/>
      <feColorMatrix values="0 0 0 0 1 0 0 0 0 1 0 0 0 0 1 0 0 0 1 0" in="shadowInnerInner1"/>
    </filter>
    <path id="F" d="M8.002 1625c0 29.685 6.675 57.534 21.905 79.135C49.703 1732.21 82.72 1748 132.002 1748h573c51.36 0 84.67-17.477 103.914-47.99 13.7-21.725 19.086-47.732 19.086-74.01V136c0-42.474-12.61-73.816-35.825-94.24C771.213 23.32 741.675 14 707.002 14h-576C85.266 14 53.174 27.803 33.07 52.895 16.11 74.062 8 103.033 8 136v1191.266L8.003 1625zm-7 0c0-48.45-.005-994.74 0-1489 0-61.285 27.61-129 130-129h576c68.797 0 128 35.682 128 129v1490c0 35.316-10.44 129-130 129h-573c-112.843 0-131-81.55-131-130z"/>
    <filter id="E" width="200%" height="200%" x="-50%" y="-50%" filterUnits="objectBoundingBox">
      <feOffset dy="1" in="SourceAlpha" result="shadowOffsetOuter1"/>
      <feGaussianBlur stdDeviation="2" in="shadowOffsetOuter1" result="shadowBlurOuter1"/>
      <feColorMatrix values="0 0 0 0 1 0 0 0 0 1 0 0 0 0 1 0 0 0 0.5 0" in="shadowBlurOuter1"/>
    </filter>
    <path id="G" d="M418 1719c33.137 0 60-26.863 60-60s-26.863-60-60-60-60 26.863-60 60 26.863 60 60 60zm0 8c-37.555 0-68-30.445-68-68s30.445-68 68-68 68 30.445 68 68-30.445 68-68 68z"/>
    <filter id="H" width="200%" height="200%" x="-50%" y="-50%" filterUnits="objectBoundingBox">
      <feMorphology radius="1" in="SourceAlpha" result="shadowSpreadInner1"/>
      <feGaussianBlur stdDeviation=".5" in="shadowSpreadInner1" result="shadowBlurInner1"/>
      <feOffset dx="1" in="shadowBlurInner1" result="shadowOffsetInner1"/>
      <feComposite in="shadowOffsetInner1" in2="SourceAlpha" operator="arithmetic" k2="-1" k3="1" result="shadowInnerInner1"/>
      <feColorMatrix values="0 0 0 0 0 0 0 0 0 0 0 0 0 0 0 0 0 0 0.2 0" in="shadowInnerInner1"/>
    </filter>
    <rect id="I" width="136" height="14" rx="7"/>
    <filter id="J" width="200%" height="200%" x="-50%" y="-50%" filterUnits="objectBoundingBox">
      <feMorphology radius=".5" operator="dilate" in="SourceAlpha" result="shadowSpreadOuter1"/>
      <feOffset dy="1" in="shadowSpreadOuter1" result="shadowOffsetOuter1"/>
      <feColorMatrix values="0 0 0 0 1 0 0 0 0 1 0 0 0 0 1 0 0 0 0.2 0" in="shadowOffsetOuter1"/>
    </filter>
    <filter id="K" width="200%" height="200%" x="-50%" y="-50%" filterUnits="objectBoundingBox">
      <feMorphology radius="2" in="SourceAlpha" result="shadowSpreadInner1"/>
      <feGaussianBlur stdDeviation="1" in="shadowSpreadInner1" result="shadowBlurInner1"/>
      <feOffset in="shadowBlurInner1" result="shadowOffsetInner1"/>
      <feComposite in="shadowOffsetInner1" in2="SourceAlpha" operator="arithmetic" k2="-1" k3="1" result="shadowInnerInner1"/>
      <feColorMatrix values="0 0 0 0 0 0 0 0 0 0 0 0 0 0 0 0 0 0 0.5 0" in="shadowInnerInner1"/>
    </filter>
    <rect id="N" width="136" height="14" rx="7"/>
    <filter id="M" width="200%" height="200%" x="-50%" y="-50%" filterUnits="objectBoundingBox">
      <feMorphology radius="2" in="SourceAlpha" result="shadowSpreadInner1"/>
      <feGaussianBlur stdDeviation="1" in="shadowSpreadInner1" result="shadowBlurInner1"/>
      <feOffset in="shadowBlurInner1" result="shadowOffsetInner1"/>
      <feComposite in="shadowOffsetInner1" in2="SourceAlpha" operator="arithmetic" k2="-1" k3="1" result="shadowInnerInner1"/>
      <feColorMatrix values="0 0 0 0 0 0 0 0 0 0 0 0 0 0 0 0 0 0 0.5 0" in="shadowInnerInner1"/>
    </filter>
    <radialGradient id="O" cx="121.058%" cy="134.126%" r="100.661%" fx="121.058%" fy="134.126%">
      <stop stop-color="#6C6C6C" offset="0%"/>
      <stop stop-color="#161616" offset="100%"/>
    </radialGradient>
    <radialGradient id="R" cy="0%" r="100%" fx="50%" fy="0%">
      <stop stop-color="#2A4893" offset="0%"/>
      <stop stop-color="#213054" offset="100%"/>
    </radialGradient>
    <circle id="P" cx="14.5" cy="14.5" r="7.5"/>
    <filter id="Q" width="200%" height="200%" x="-50%" y="-50%" filterUnits="objectBoundingBox">
      <feMorphology radius="1" operator="dilate" in="SourceAlpha" result="shadowSpreadOuter1"/>
      <feOffset in="shadowSpreadOuter1" result="shadowOffsetOuter1"/>
      <feGaussianBlur stdDeviation="1" in="shadowOffsetOuter1" result="shadowBlurOuter1"/>
      <feColorMatrix values="0 0 0 0 0 0 0 0 0 0 0 0 0 0 0 0 0 0 0.4 0" in="shadowBlurOuter1"/>
    </filter>
    <filter id="S" width="200%" height="200%" x="-50%" y="-50%" filterUnits="objectBoundingBox">
      <feGaussianBlur stdDeviation="1" in="SourceGraphic"/>
    </filter>
    <filter id="U" width="200%" height="200%" x="-50%" y="-50%" filterUnits="objectBoundingBox">
      <feGaussianBlur stdDeviation="1" in="SourceGraphic"/>
    </filter>
    <filter id="V" width="200%" height="200%" x="-50%" y="-50%" filterUnits="objectBoundingBox">
      <feGaussianBlur stdDeviation="1" in="SourceGraphic"/>
    </filter>
    <filter id="W" width="200%" height="200%" x="-50%" y="-50%" filterUnits="objectBoundingBox">
      <feGaussianBlur stdDeviation="1" in="SourceGraphic"/>
    </filter>
    <filter id="X" width="200%" height="200%" x="-50%" y="-50%" filterUnits="objectBoundingBox">
      <feGaussianBlur stdDeviation="1" in="SourceGraphic"/>
    </filter>
    <filter id="Y" width="200%" height="200%" x="-50%" y="-50%" filterUnits="objectBoundingBox">
      <feGaussianBlur stdDeviation="1" in="SourceGraphic"/>
    </filter>
  </defs>
  <g fill="none" fill-rule="evenodd">
    <g transform="translate(1812 1883)">
      <g fill="#000">
        <use filter="url(#b)" xlink:href="#c"/>
        <use xlink:href="#c"/>
        <use filter="url(#d)" xlink:href="#c"/>
      </g>
      <rect width="2" height="70" x="1" y="1" fill="url(#e)" rx="1"/>
    </g>
    <g transform="matrix(-1 0 0 1 2681 2032)">
      <g fill="#000">
        <use filter="url(#f)" xlink:href="#g"/>
        <use xlink:href="#g"/>
        <use filter="url(#h)" xlink:href="#g"/>
      </g>
      <rect width="2" height="135.909" x="1" y="1.045" fill="url(#e)" rx="1"/>
    </g>
    <g fill="#000" transform="translate(1812 1657)">
      <use xlink:href="#i"/>
      <use filter="url(#j)" xlink:href="#i"/>
    </g>
    <g transform="translate(2188 3429)" opacity=".903">
      <use fill="#000" filter="url(#k)" xlink:href="#l"/>
      <use fill="url(#m)" xlink:href="#l"/>
    </g>
    <g transform="translate(1813 2031)">
      <g fill="#000">
        <use filter="url(#n)" xlink:href="#o"/>
        <use xlink:href="#o"/>
        <use filter="url(#p)" xlink:href="#o"/>
      </g>
      <rect width="2" height="130" x="1" y="1" fill="url(#e)" rx="1"/>
    </g>
    <g transform="translate(1812 2197)">
      <g fill="#000">
        <use filter="url(#q)" xlink:href="#r"/>
        <use xlink:href="#r"/>
        <use filter="url(#s)" xlink:href="#r"/>
      </g>
      <rect width="2" height="130" x="1" y="1" fill="url(#e)" rx="1"/>
    </g>
    <g transform="translate(1829 1664)">
      <use fill="#000" filter="url(#t)" xlink:href="#a"/>
      <use fill="url(#u)" xlink:href="#a"/>
      <use fill="#000" filter="url(#v)" xlink:href="#a"/>
      <use stroke="#FFF" stroke-opacity=".2" stroke-width="4" mask="url(#w)" xlink:href="#a"/>
    </g>
    <path fill="#FFF" d="M2644.73 3359.264c-17.353 28.48-49.976 52.736-110.886 52.736H1960.16c-112.98 0-131.158-81.55-131.158-130s-.005-994.74 0-1489c0-61.285 27.644-129 130.156-129h576.69c68.878 0 128.152 35.682 128.152 129v1490c0 17.346-2.52 48.773-19.27 76.264-16.1 31.386-48.73 59.736-114.263 59.736H1959.53c-112.436 0-130.528-81.55-130.528-130s-.004-994.74 0-1489c0-61.285 27.512-129 129.532-129h573.927c68.55 0 127.54 35.682 127.54 129v1490c0 15.89-2.104 43.593-15.27 69.264z" opacity=".52"/>
    <g opacity=".6" filter="url(#x)" transform="translate(1829 1664)">
      <use fill="#000" filter="url(#y)" xlink:href="#z"/>
      <use fill="#FFF" xlink:href="#z"/>
    </g>
    <g opacity=".8" filter="url(#A)" transform="translate(1829 1664)">
      <use fill="#000" filter="url(#B)" xlink:href="#C"/>
      <use fill="#FFF" xlink:href="#C"/>
      <use fill="#000" filter="url(#D)" xlink:href="#C"/>
    </g>
    <g fill-rule="nonzero" transform="translate(1829 1664)">
      <use fill="#000" filter="url(#E)" xlink:href="#F"/>
      <use fill="#18191A" fill-rule="evenodd" xlink:href="#F"/>
    </g>
    <g fill-rule="nonzero" transform="translate(1829 1664)">
      <use fill-rule="evenodd" xlink:href="#G"/>
      <use fill="#D8D8D8" fill-opacity=".1" fill-rule="evenodd" xlink:href="#G"/>
      <use fill="#000" filter="url(#H)" xlink:href="#G"/>
    </g>
    <g opacity=".801" transform="translate(2179 1767)">
      <mask id="L" fill="#fff">
        <use xlink:href="#I"/>
      </mask>
      <use fill="#000" filter="url(#J)" xlink:href="#I"/>
      <use fill="#333" xlink:href="#I"/>
      <use fill="#000" filter="url(#K)" xlink:href="#I"/>
      <path fill="#000" fill-opacity=".15" d="M-2 0h139v1H-2V0zm0 3h139v1H-2V3zm0 3h139v1H-2V6zm0 3h139v1H-2V9zm0 3h139v1H-2v-1z" mask="url(#L)"/>
      <path fill="#000" fill-opacity=".15" d="M1-1h1v17H1V-1zm3 0h1v17H4V-1zm3 0h1v17H7V-1zm3 0h1v17h-1V-1zm3 0h1v17h-1V-1zm3 0h1v17h-1V-1zm3 0h1v17h-1V-1zm3 0h1v17h-1V-1zm3 0h1v17h-1V-1zm3 0h1v17h-1V-1zm3 0h1v17h-1V-1zm3 0h1v17h-1V-1zm3 0h1v17h-1V-1zm3 0h1v17h-1V-1zm3 0h1v17h-1V-1zm3 0h1v17h-1V-1zm3 0h1v17h-1V-1zm3 0h1v17h-1V-1zm3 0h1v17h-1V-1zm3 0h1v17h-1V-1zm3 0h1v17h-1V-1zm3 0h1v17h-1V-1zm3 0h1v17h-1V-1zm3 0h1v17h-1V-1zm3 0h1v17h-1V-1zm3 0h1v17h-1V-1zm3 0h1v17h-1V-1zm3 0h1v17h-1V-1zm3 0h1v17h-1V-1zm3 0h1v17h-1V-1zm3 0h1v17h-1V-1zm3 0h1v17h-1V-1zm3 0h1v17h-1V-1zm3 0h1v17h-1V-1zm3 0h1v17h-1V-1zm3 0h1v17h-1V-1zm3 0h1v17h-1V-1zm3 0h1v17h-1V-1zm3 0h1v17h-1V-1zm3 0h1v17h-1V-1zm3 0h1v17h-1V-1zm3 0h1v17h-1V-1zm3 0h1v17h-1V-1zm3 0h1v17h-1V-1zm3 0h1v17h-1V-1z" mask="url(#L)"/>
      <use fill="#000" filter="url(#M)" xlink:href="#N" opacity=".2"/>
    </g>
    <g transform="translate(2096 1759)">
      <circle cx="14.5" cy="14.5" r="14.5" fill="url(#O)"/>
      <mask id="T" fill="#fff">
        <use xlink:href="#P"/>
      </mask>
      <use fill="#000" filter="url(#Q)" xlink:href="#P"/>
      <use fill="url(#R)" xlink:href="#P"/>
      <circle cx="10" cy="17" r="1" fill="#BEE5FF" filter="url(#S)" mask="url(#T)"/>
      <circle cx="10" cy="17" r="1" fill="#BEE5FF" style="mix-blend-mode:multiply" filter="url(#U)" mask="url(#T)"/>
      <circle cx="21.5" cy="10.5" r="1.5" fill="#75C9FF" filter="url(#V)" mask="url(#T)"/>
      <circle cx="21.5" cy="10.5" r="1.5" fill="#75C9FF" filter="url(#W)" mask="url(#T)"/>
      <ellipse cx="12.5" cy="10.5" fill="#3358B6" filter="url(#X)" mask="url(#T)" transform="rotate(-29 12.5 10.5)" rx="3.5" ry="1.5"/>
      <circle cx="15.5" cy="14.5" r="3.5" fill="#00154F" filter="url(#Y)" mask="url(#T)" transform="rotate(-16 15.5 14.5)"/>
    </g>
    <path fill="#FFF" d="M1872 1885h750v1334h-750z"/>
  </g>
</svg>
